# xmcd
#
# Track frame offsets: 
#        150
#        3939
#        23311
#        46087
#        63031
#        78931
#
# Disc length: 1309 seconds
#
# Revision: 1
# Processed by: cddbd v1.5.2PL0 Copyright (c) Steve Scherf et al.
# Submitted via: ExactAudioCopyFreeDBPlugin 1.0
#
DISCID=2c051b06
DTITLE=정엽 - Part I - ME
DYEAR=2011
DGENRE=R&B
TTITLE0=Without Me
TTITLE1=눈물나
TTITLE2=잘 몰랐었다
TTITLE3=내 사람들
TTITLE4=말도안돼
TTITLE5=Without You
EXTD=
EXTT0=
EXTT1=
EXTT2=
EXTT3=
EXTT4=
EXTT5=
PLAYORDER=
